<svg xmlns="http://www.w3.org/2000/svg" xmlns:xlink="http://www.w3.org/1999/xlink" width="auto" height="auto" viewBox="0 0 2000 1090">
  <defs>
    <clipPath id="clip-path">
      <rect id="Rectangle_8582" data-name="Rectangle 8582" width="100%" height="100%" fill="#fff" stroke="#707070" stroke-width="1"/>
    </clipPath>
  </defs>
  <g id="Mask_Group_1" data-name="Mask Group 1" clip-path="url(#clip-path)">
    <g id="Path_1" data-name="Path 1" transform="translate(-241.327 -1316.835)" fill="#1899d7" opacity="0.1">
      <path d="M 1411.974731445312 3802.14892578125 C 1390.537841796875 3802.150146484375 1371.301025390625 3788.50390625 1364.105590820312 3768.192138671875 C 1356.359619140625 3746.3203125 1348.536010742188 3724.57666015625 1340.741088867188 3702.912109375 C 1307.144653320312 3609.538330078125 1275.411987304688 3521.343017578125 1251.430541992188 3428.8466796875 C 1241.116943359375 3389.065673828125 1266.28515625 3330.474853515625 1295.802856445312 3290.0556640625 C 1576.435546875 2905.78515625 1634.95654296875 2426.232177734375 1452.346069335938 2007.251220703125 C 1269.013305664062 1586.611572265625 875.4874267578125 1301.811157226562 399.6651306152344 1245.409301757812 C 312.1378479003906 1235.033447265625 270.4514770507812 1211.509399414062 270.2805786132812 1105.887084960938 C 270.1587524414062 1034.196166992188 270.2537536621094 1030.672973632812 271.1605834960938 996.9656982421875 L 271.4823913574219 984.9171142578125 C 275.432861328125 834.7520751953125 276.7637634277344 784.165283203125 366.9101257324219 784.165283203125 C 397.3092041015625 784.165283203125 436.4273986816406 789.7384643554688 497.2401428222656 798.9175415039062 C 982.696044921875 872.1884765625 1375.630615234375 1103.33935546875 1665.128784179688 1485.950317382812 C 1675.900634765625 1500.191162109375 1686.560180664062 1513.988037109375 1698.531982421875 1526.242065429688 C 1699.040161132812 1526.76123046875 1699.6201171875 1527.2275390625 1700.263793945312 1527.672119140625 C 1703.08056640625 1529.620239257812 1706.230590820312 1530.606201171875 1709.631958007812 1530.606201171875 C 1709.632446289062 1530.606201171875 1709.633544921875 1530.606201171875 1709.634033203125 1530.606201171875 C 1717.34619140625 1530.606201171875 1724.370239257812 1525.637084960938 1727.11376953125 1518.240234375 C 1930.246459960938 970.6511840820312 2245.187744140625 525.8384399414062 2689.933837890625 158.3843536376953 C 2707.9169921875 143.5261840820312 2730.668701171875 135.3434448242188 2753.998779296875 135.3434448242188 C 2782.967041015625 135.3434448242188 2810.565185546875 147.7861785888672 2829.7177734375 169.4811706542969 L 2877.23828125 223.3111724853516 L 2981.17236328125 341.046630859375 C 3017.391845703125 382.0720825195312 3013.95703125 445.4452819824219 2973.51513671875 482.3148193359375 C 2937.791015625 514.8779907226562 2897.301025390625 551.7852783203125 2858.590087890625 587.967529296875 C 2277.217041015625 1131.356689453125 1997.913818359375 1763.3193359375 2004.720092773438 2519.968017578125 C 2008.741455078125 2967.05517578125 1849.65380859375 3366.242919921875 1531.8759765625 3706.442626953125 C 1502.855102539062 3737.513427734375 1471.07421875 3766.00927734375 1443.563354492188 3790.27978515625 C 1442.736450195312 3791.012939453125 1441.854614257812 3791.72705078125 1440.946044921875 3792.41943359375 C 1432.498291015625 3798.7939453125 1422.493286132812 3802.1484375 1411.974731445312 3802.14892578125 Z" stroke="none"/>
      <path d="M 2753.99853515625 145.34326171875 C 2733.631591796875 145.34375 2713.16943359375 152.15771484375 2696.30322265625 166.09326171875 C 2245.78466796875 538.316162109375 1933.969360351562 989.3671875 1736.489379882812 1521.7177734375 C 1730.183349609375 1538.720458984375 1709.496215820312 1546.2158203125 1694.581298828125 1535.900634765625 C 1693.393310546875 1535.080322265625 1692.333862304688 1534.205322265625 1691.378784179688 1533.230224609375 C 1678.931396484375 1520.4892578125 1667.931396484375 1506.231689453125 1657.154296875 1491.983642578125 C 1364.196899414062 1104.8017578125 974.826904296875 881.11376953125 495.747802734375 808.8056640625 C 287.256103515625 777.335693359375 286.86474609375 780.46435546875 281.478759765625 985.1796875 C 280.270263671875 1031.05615234375 280.145751953125 1026.63525390625 280.2802734375 1105.87060546875 C 280.434326171875 1201.0947265625 313.037841796875 1225.0703125 400.84228515625 1235.478759765625 C 1420.372314453125 1356.32861328125 1906.702392578125 2470.50634765625 1303.878784179688 3295.95361328125 C 1277.606323242188 3331.9287109375 1251.328857421875 3388.606201171875 1261.1103515625 3426.337158203125 C 1290.645385742188 3540.254638671875 1333.150390625 3650.82568359375 1373.531372070312 3764.852783203125 C 1382.463256835938 3790.065673828125 1413.529174804688 3800.5791015625 1434.8837890625 3784.46630859375 C 1435.594848632812 3783.92431640625 1436.286376953125 3783.3671875 1436.947875976562 3782.78076171875 C 1467.134399414062 3756.149658203125 1497.121337890625 3729.001708984375 1524.568359375 3699.6162109375 C 1834.826782226562 3367.46630859375 1998.803344726562 2973.98828125 1994.720336914062 2520.0576171875 C 1987.728393554688 1742.74462890625 2290.0947265625 1105.63232421875 2851.76123046875 580.66162109375 C 2889.138916015625 545.726318359375 2926.933837890625 511.2431640625 2966.77783203125 474.9248046875 C 3003.434326171875 441.505615234375 3006.5029296875 384.84765625 2973.67529296875 347.664794921875 C 2921.707275390625 288.793212890625 2872.180908203125 232.692138671875 2822.221435546875 176.09912109375 C 2804.291748046875 155.78955078125 2779.2177734375 145.3427734375 2753.99853515625 145.34326171875 M 2753.997802734375 125.34326171875 C 2785.832763671875 125.3427734375 2816.163818359375 139.018310546875 2837.21484375 162.86279296875 L 2988.66943359375 334.42919921875 C 3028.479736328125 379.521728515625 3024.704345703125 449.17822265625 2980.25244140625 489.7041015625 C 2944.554443359375 522.24365234375 2904.09521484375 559.122802734375 2865.41845703125 595.273193359375 C 2286.205810546875 1136.643310546875 2007.939819335938 1766.186767578125 2014.719360351562 2519.877685546875 C 2018.764892578125 2969.61669921875 1858.771362304688 3371.13134765625 1539.183837890625 3713.268798828125 C 1509.855346679688 3744.668212890625 1477.86328125 3773.354736328125 1450.179321289062 3797.77880859375 C 1449.187377929688 3798.658203125 1448.114868164062 3799.52880859375 1447.0087890625 3800.371826171875 C 1436.770874023438 3808.0966796875 1424.683349609375 3812.148681640625 1411.973876953125 3812.148681640625 C 1386.310791015625 3812.148681640625 1363.286376953125 3795.82568359375 1354.679321289062 3771.53125 C 1346.937866210938 3749.670654296875 1339.118896484375 3727.939697265625 1331.328369140625 3706.28759765625 C 1297.6533203125 3612.6953125 1265.845825195312 3524.293212890625 1241.750366210938 3431.356689453125 C 1229.853759765625 3385.46728515625 1259.082885742188 3323.3818359375 1287.727294921875 3284.158203125 C 1566.241333007812 2902.78857421875 1624.353881835938 2426.93359375 1443.178833007812 2011.246215820312 C 1261.281372070312 1593.900146484375 870.742919921875 1311.318115234375 398.48828125 1255.33984375 C 308.993408203125 1244.730712890625 260.46142578125 1217.774169921875 260.2802734375 1105.9033203125 C 260.158447265625 1034.068115234375 260.25390625 1030.53076171875 261.164306640625 996.692626953125 L 261.48583984375 984.6533203125 C 265.40234375 835.7841796875 267.02392578125 774.165283203125 366.910400390625 774.165283203125 C 398.01025390625 774.165283203125 437.459228515625 779.78076171875 498.73291015625 789.02978515625 C 986.859375 862.703125 1381.974853515625 1095.151123046875 1673.103393554688 1479.916259765625 C 1683.67578125 1493.893798828125 1694.121826171875 1507.418212890625 1705.684814453125 1519.253662109375 C 1707.081298828125 1520.228759765625 1708.282836914062 1520.606201171875 1709.630859375 1520.606201171875 C 1712.491333007812 1520.606201171875 1716.248291015625 1518.77783203125 1717.7373046875 1514.7626953125 C 1921.499877929688 965.477294921875 2237.42431640625 519.28076171875 2683.564453125 150.6748046875 C 2703.33447265625 134.34033203125 2728.347900390625 125.34375 2753.997802734375 125.34326171875 Z" stroke="none" fill="#1899d7"/>
    </g>
    <g id="vuesax_bulk_arrow-down" data-name="vuesax/bulk/arrow-down" transform="translate(-250 757)">
      <g id="arrow-down">
        <path id="Vector" d="M290.786,140.137,185.613,0H29.936C3.3,0-10.024,32.19,8.846,51.06L152.591,194.8a59.123,59.123,0,0,0,83.528,0Z" transform="translate(138.784 226.995)" fill="#1899d7" opacity="0.4"/>
        <path id="Vector-2" data-name="Vector" d="M172.883,0H0L105.173,140.137,194.25,51.06C212.843,32.19,199.523,0,172.883,0Z" transform="translate(324.398 226.995)" fill="#1899d7"/>
        <path id="Vector-3" data-name="Vector" d="M0,0H666V666H0Z" fill="none" opacity="0"/>
      </g>
    </g>
    <g id="vuesax_bulk_arrow-down-2" data-name="vuesax/bulk/arrow-down" transform="translate(2157 323) rotate(180)">
      <g id="arrow-down-2" data-name="arrow-down">
        <path id="Vector-4" data-name="Vector" d="M290.786,140.137,185.613,0H29.936C3.3,0-10.024,32.19,8.846,51.06L152.591,194.8a59.123,59.123,0,0,0,83.528,0Z" transform="translate(138.784 226.995)" fill="#1899d7" opacity="0.4"/>
        <path id="Vector-5" data-name="Vector" d="M172.883,0H0L105.173,140.137,194.25,51.06C212.843,32.19,199.523,0,172.883,0Z" transform="translate(324.398 226.995)" fill="#1899d7"/>
        <path id="Vector-6" data-name="Vector" d="M0,0H666V666H0Z" fill="none" opacity="0"/>
      </g>
    </g>
  </g>
</svg>
